<svg width="70" height="70" viewBox="0 0 70 70" fill="none" xmlns="http://www.w3.org/2000/svg">
<path d="M69.4167 35C69.4167 54.0078 54.0078 69.4167 35 69.4167C15.9922 69.4167 0.583333 54.0078 0.583333 35C0.583333 15.9922 15.9922 0.583333 35 0.583333C54.0078 0.583333 69.4167 15.9922 69.4167 35Z" stroke="#FCFCFC" stroke-width="1.16667"/>
<path d="M11.3537 49.7374C11.3537 50.1183 11.2823 50.4374 11.1394 50.6945C10.9997 50.9517 10.7981 51.1453 10.5346 51.2755C10.2711 51.4056 9.9521 51.4707 9.57749 51.4707H8.62987V48.0707H9.67749C10.0203 48.0707 10.3172 48.1342 10.568 48.2612C10.8188 48.3882 11.0124 48.5755 11.1489 48.8231C11.2854 49.0675 11.3537 49.3723 11.3537 49.7374ZM10.9013 49.7517C10.9013 49.4501 10.8505 49.2024 10.7489 49.0088C10.6505 48.8151 10.5045 48.6723 10.3108 48.5802C10.1203 48.485 9.8886 48.4374 9.61559 48.4374H9.05844V51.104H9.52035C9.98067 51.104 10.3251 50.9913 10.5537 50.7659C10.7854 50.5374 10.9013 50.1993 10.9013 49.7517ZM14.7226 51.4707H12.8226V48.0707H14.7226V48.4469H13.2512V49.5088H14.6369V49.8802H13.2512V51.0945H14.7226V51.4707ZM17.64 48.3993C17.4591 48.3993 17.2956 48.431 17.1496 48.4945C17.0035 48.5548 16.8797 48.6453 16.7781 48.7659C16.6765 48.8834 16.5988 49.0278 16.5448 49.1993C16.4908 49.3675 16.4638 49.558 16.4638 49.7707C16.4638 50.0501 16.5067 50.2929 16.5924 50.4993C16.6813 50.7056 16.8115 50.8644 16.9829 50.9755C17.1575 51.0866 17.3749 51.1421 17.6353 51.1421C17.7845 51.1421 17.9257 51.1294 18.0591 51.104C18.1924 51.0786 18.3226 51.0469 18.4496 51.0088V51.3802C18.3226 51.4278 18.1908 51.4628 18.0543 51.485C17.921 51.5072 17.7607 51.5183 17.5734 51.5183C17.2273 51.5183 16.9384 51.4469 16.7067 51.304C16.4749 51.1612 16.3003 50.958 16.1829 50.6945C16.0686 50.431 16.0115 50.1215 16.0115 49.7659C16.0115 49.5088 16.0464 49.2739 16.1162 49.0612C16.1892 48.8485 16.294 48.6644 16.4305 48.5088C16.5702 48.3532 16.7416 48.2342 16.9448 48.1517C17.148 48.0659 17.3813 48.0231 17.6448 48.0231C17.8194 48.0231 17.9876 48.0405 18.1496 48.0755C18.3115 48.1104 18.4559 48.1596 18.5829 48.2231L18.4115 48.585C18.3067 48.5374 18.1892 48.4945 18.0591 48.4564C17.9321 48.4183 17.7924 48.3993 17.64 48.3993ZM22.7796 49.7659C22.7796 50.0294 22.7462 50.2691 22.6796 50.485C22.6129 50.6977 22.5129 50.8818 22.3796 51.0374C22.2494 51.1929 22.0859 51.312 21.8891 51.3945C21.6954 51.4771 21.4701 51.5183 21.2129 51.5183C20.9462 51.5183 20.7145 51.4771 20.5177 51.3945C20.3208 51.3088 20.1574 51.1898 20.0272 51.0374C19.897 50.8818 19.8002 50.6961 19.7367 50.4802C19.6732 50.2644 19.6415 50.0247 19.6415 49.7612C19.6415 49.412 19.6986 49.1072 19.8129 48.8469C19.9272 48.5866 20.1002 48.3834 20.332 48.2374C20.5669 48.0913 20.8621 48.0183 21.2177 48.0183C21.5574 48.0183 21.8431 48.0913 22.0748 48.2374C22.3066 48.3802 22.4812 48.5834 22.5986 48.8469C22.7193 49.1072 22.7796 49.4136 22.7796 49.7659ZM20.0939 49.7659C20.0939 50.0517 20.1335 50.2977 20.2129 50.504C20.2923 50.7104 20.4145 50.8691 20.5796 50.9802C20.7478 51.0913 20.9589 51.1469 21.2129 51.1469C21.4701 51.1469 21.6796 51.0913 21.8415 50.9802C22.0066 50.8691 22.1288 50.7104 22.2081 50.504C22.2875 50.2977 22.3272 50.0517 22.3272 49.7659C22.3272 49.3374 22.2383 49.0024 22.0605 48.7612C21.8827 48.5167 21.6018 48.3945 21.2177 48.3945C20.9605 48.3945 20.7478 48.4501 20.5796 48.5612C20.4145 48.6691 20.2923 48.8263 20.2129 49.0326C20.1335 49.2358 20.0939 49.4802 20.0939 49.7659ZM25.1855 48.0707C25.4681 48.0707 25.6998 48.1072 25.8808 48.1802C26.0649 48.2501 26.2014 48.3564 26.2903 48.4993C26.3792 48.6421 26.4236 48.8215 26.4236 49.0374C26.4236 49.2183 26.3903 49.3691 26.3236 49.4898C26.257 49.6104 26.1712 49.7072 26.0665 49.7802C25.9649 49.8501 25.857 49.9056 25.7427 49.9469L26.676 51.4707H26.176L25.3522 50.0659H24.676V51.4707H24.2474V48.0707H25.1855ZM25.1617 48.4421H24.676V49.704H25.1855C25.3697 49.704 25.5204 49.6802 25.6379 49.6326C25.7554 49.5818 25.8411 49.5088 25.895 49.4136C25.9522 49.3183 25.9808 49.1993 25.9808 49.0564C25.9808 48.9072 25.9506 48.7882 25.8903 48.6993C25.8331 48.6104 25.7443 48.5453 25.6236 48.504C25.503 48.4628 25.349 48.4421 25.1617 48.4421ZM30.0573 51.4707L29.6478 50.4183H28.3001L27.8954 51.4707H27.4621L28.7906 48.0564H29.1763L30.5001 51.4707H30.0573ZM29.1382 49.0088C29.1287 48.9834 29.1128 48.9374 29.0906 48.8707C29.0684 48.804 29.0462 48.7358 29.024 48.6659C29.0049 48.5929 28.989 48.5374 28.9763 48.4993C28.9605 48.5628 28.943 48.6278 28.924 48.6945C28.9081 48.758 28.8906 48.8167 28.8716 48.8707C28.8557 48.9247 28.8414 48.9707 28.8287 49.0088L28.443 50.0374H29.5192L29.1382 49.0088ZM32.4209 51.4707H31.9923V48.4469H30.9304V48.0707H33.478V48.4469H32.4209V51.4707ZM35.6622 51.4707H34.4336V51.2231L34.8336 51.1326V48.4136L34.4336 48.3183V48.0707H35.6622V48.3183L35.2622 48.4136V51.1326L35.6622 51.2231V51.4707ZM39.4282 48.0707L38.2139 51.4707H37.7853L36.5711 48.0707H37.0187L37.7853 50.2517C37.8203 50.3437 37.8504 50.4326 37.8758 50.5183C37.9012 50.604 37.9234 50.6866 37.9425 50.7659C37.9647 50.8421 37.9838 50.9183 37.9996 50.9945C38.0155 50.9183 38.033 50.8405 38.052 50.7612C38.0742 50.6818 38.098 50.5993 38.1234 50.5136C38.152 50.4278 38.1822 50.3374 38.2139 50.2421L38.9758 48.0707H39.4282ZM43.0882 51.4707H42.5835L41.3787 49.8469L41.0311 50.1517V51.4707H40.6025V48.0707H41.0311V49.7469C41.1263 49.639 41.2232 49.531 41.3216 49.4231C41.42 49.3151 41.5184 49.2072 41.6168 49.0993L42.5359 48.0707H43.0359L41.6882 49.5517L43.0882 51.4707ZM46.3984 51.4707L45.9889 50.4183H44.6413L44.2365 51.4707H43.8032L45.1318 48.0564H45.5175L46.8413 51.4707H46.3984ZM45.4794 49.0088C45.4699 48.9834 45.454 48.9374 45.4318 48.8707C45.4095 48.804 45.3873 48.7358 45.3651 48.6659C45.3461 48.5929 45.3302 48.5374 45.3175 48.4993C45.3016 48.5628 45.2841 48.6278 45.2651 48.6945C45.2492 48.758 45.2318 48.8167 45.2127 48.8707C45.1968 48.9247 45.1826 48.9707 45.1699 49.0088L44.7841 50.0374H45.8603L45.4794 49.0088ZM49.6826 52.204H47.5492V51.8993H49.6826V52.204ZM53.4366 50.2707C53.4366 50.5056 53.3889 50.7183 53.2937 50.9088C53.1985 51.0961 53.0524 51.2453 52.8556 51.3564C52.662 51.4644 52.4143 51.5183 52.1128 51.5183C51.6905 51.5183 51.3683 51.404 51.1461 51.1755C50.927 50.9437 50.8175 50.639 50.8175 50.2612V48.0707H51.2461V50.2755C51.2461 50.5517 51.3191 50.7659 51.4651 50.9183C51.6143 51.0707 51.8382 51.1469 52.1366 51.1469C52.3429 51.1469 52.5096 51.1104 52.6366 51.0374C52.7667 50.9612 52.862 50.858 52.9223 50.7278C52.9826 50.5945 53.0128 50.4421 53.0128 50.2707V48.0707H53.4366V50.2707ZM57.5339 51.4707H57.0292L55.8244 49.8469L55.4768 50.1517V51.4707H55.0482V48.0707H55.4768V49.7469C55.572 49.639 55.6688 49.531 55.7673 49.4231C55.8657 49.3151 55.9641 49.2072 56.0625 49.0993L56.9815 48.0707H57.4815L56.1339 49.5517L57.5339 51.4707ZM59.6489 48.0707C59.9314 48.0707 60.1632 48.1072 60.3441 48.1802C60.5282 48.2501 60.6648 48.3564 60.7536 48.4993C60.8425 48.6421 60.887 48.8215 60.887 49.0374C60.887 49.2183 60.8536 49.3691 60.787 49.4898C60.7203 49.6104 60.6346 49.7072 60.5298 49.7802C60.4282 49.8501 60.3203 49.9056 60.206 49.9469L61.1394 51.4707H60.6394L59.8155 50.0659H59.1394V51.4707H58.7108V48.0707H59.6489ZM59.6251 48.4421H59.1394V49.704H59.6489C59.833 49.704 59.9838 49.6802 60.1013 49.6326C60.2187 49.5818 60.3044 49.5088 60.3584 49.4136C60.4155 49.3183 60.4441 49.1993 60.4441 49.0564C60.4441 48.9072 60.414 48.7882 60.3536 48.6993C60.2965 48.6104 60.2076 48.5453 60.087 48.504C59.9663 48.4628 59.8124 48.4421 59.6251 48.4421Z" fill="#FCFCFC"/>
<path d="M25.668 18.3699C31.9379 17.4175 44.4778 18.4175 44.4778 30.0367C44.4778 41.656 31.9379 42.9734 25.668 42.1798" stroke="#FCFCFC" stroke-width="1.16667"/>
<path d="M27.3359 18.1309V42.3208" stroke="#FCFCFC" stroke-width="1.16667"/>
<path d="M30.9062 18.1309V42.3208" stroke="#FCFCFC" stroke-width="1.16667"/>
</svg>
