<svg width="30" height="30" viewBox="0 0 30 30" fill="none" xmlns="http://www.w3.org/2000/svg">
<path d="M20.7502 7.275C19.8957 6.29953 19.4248 5.04679 19.4252 3.75H15.5627V19.25C15.5329 20.0888 15.1788 20.8833 14.5749 21.4662C13.971 22.0491 13.1645 22.3749 12.3252 22.375C10.5502 22.375 9.0752 20.925 9.0752 19.125C9.0752 16.975 11.1502 15.3625 13.2877 16.025V12.075C8.9752 11.5 5.2002 14.85 5.2002 19.125C5.2002 23.2875 8.6502 26.25 12.3127 26.25C16.2377 26.25 19.4252 23.0625 19.4252 19.125V11.2625C20.9914 12.3873 22.8719 12.9908 24.8002 12.9875V9.125C24.8002 9.125 22.4502 9.2375 20.7502 7.275Z" fill="#FCFCFC"/>
</svg>
