<svg width="70" height="71" viewBox="0 0 70 71" fill="none" xmlns="http://www.w3.org/2000/svg">
<path d="M69.4167 35.5C69.4167 54.5078 54.0078 69.9167 35 69.9167C15.9922 69.9167 0.583333 54.5078 0.583333 35.5C0.583333 16.4922 15.9922 1.08333 35 1.08333C54.0078 1.08333 69.4167 16.4922 69.4167 35.5Z" stroke="#FCFCFC" stroke-width="1.16667"/>
<path d="M11.3524 50.2359C11.3524 50.6169 11.281 50.9359 11.1381 51.193C10.9984 51.4502 10.7968 51.6438 10.5333 51.774C10.2698 51.9042 9.9508 51.9692 9.5762 51.9692H8.62858V48.5692H9.6762C10.0191 48.5692 10.3159 48.6327 10.5667 48.7597C10.8175 48.8867 11.0111 49.074 11.1476 49.3216C11.2841 49.5661 11.3524 49.8708 11.3524 50.2359ZM10.9 50.2502C10.9 49.9486 10.8492 49.701 10.7476 49.5073C10.6492 49.3137 10.5032 49.1708 10.3095 49.0788C10.1191 48.9835 9.88731 48.9359 9.61429 48.9359H9.05715V51.6026H9.51905C9.97937 51.6026 10.3238 51.4899 10.5524 51.2645C10.7841 51.0359 10.9 50.6978 10.9 50.2502ZM14.7213 51.9692H12.8213V48.5692H14.7213V48.9454H13.2499V50.0073H14.6356V50.3788H13.2499V51.593H14.7213V51.9692ZM17.6387 48.8978C17.4578 48.8978 17.2943 48.9296 17.1483 48.993C17.0022 49.0534 16.8784 49.1438 16.7768 49.2645C16.6752 49.3819 16.5975 49.5264 16.5435 49.6978C16.4895 49.8661 16.4625 50.0565 16.4625 50.2692C16.4625 50.5486 16.5054 50.7915 16.5911 50.9978C16.68 51.2042 16.8102 51.3629 16.9816 51.474C17.1562 51.5851 17.3737 51.6407 17.634 51.6407C17.7832 51.6407 17.9244 51.628 18.0578 51.6026C18.1911 51.5772 18.3213 51.5454 18.4483 51.5073V51.8788C18.3213 51.9264 18.1895 51.9613 18.053 51.9835C17.9197 52.0057 17.7594 52.0169 17.5721 52.0169C17.226 52.0169 16.9371 51.9454 16.7054 51.8026C16.4737 51.6597 16.2991 51.4565 16.1816 51.193C16.0673 50.9296 16.0102 50.62 16.0102 50.2645C16.0102 50.0073 16.0451 49.7724 16.1149 49.5597C16.1879 49.347 16.2927 49.1629 16.4292 49.0073C16.5689 48.8518 16.7403 48.7327 16.9435 48.6502C17.1467 48.5645 17.38 48.5216 17.6435 48.5216C17.8181 48.5216 17.9864 48.5391 18.1483 48.574C18.3102 48.6089 18.4546 48.6581 18.5816 48.7216L18.4102 49.0835C18.3054 49.0359 18.1879 48.993 18.0578 48.955C17.9308 48.9169 17.7911 48.8978 17.6387 48.8978ZM22.7783 50.2645C22.7783 50.528 22.7449 50.7677 22.6783 50.9835C22.6116 51.1962 22.5116 51.3803 22.3783 51.5359C22.2481 51.6915 22.0846 51.8105 21.8878 51.893C21.6942 51.9756 21.4688 52.0169 21.2116 52.0169C20.9449 52.0169 20.7132 51.9756 20.5164 51.893C20.3195 51.8073 20.1561 51.6883 20.0259 51.5359C19.8957 51.3803 19.7989 51.1946 19.7354 50.9788C19.6719 50.7629 19.6402 50.5232 19.6402 50.2597C19.6402 49.9105 19.6973 49.6057 19.8116 49.3454C19.9259 49.0851 20.0989 48.8819 20.3307 48.7359C20.5656 48.5899 20.8608 48.5169 21.2164 48.5169C21.5561 48.5169 21.8418 48.5899 22.0735 48.7359C22.3053 48.8788 22.4799 49.0819 22.5973 49.3454C22.718 49.6057 22.7783 49.9121 22.7783 50.2645ZM20.0926 50.2645C20.0926 50.5502 20.1322 50.7962 20.2116 51.0026C20.291 51.2089 20.4132 51.3677 20.5783 51.4788C20.7465 51.5899 20.9576 51.6454 21.2116 51.6454C21.4688 51.6454 21.6783 51.5899 21.8402 51.4788C22.0053 51.3677 22.1275 51.2089 22.2069 51.0026C22.2862 50.7962 22.3259 50.5502 22.3259 50.2645C22.3259 49.8359 22.237 49.501 22.0592 49.2597C21.8815 49.0153 21.6005 48.893 21.2164 48.893C20.9592 48.893 20.7465 48.9486 20.5783 49.0597C20.4132 49.1677 20.291 49.3248 20.2116 49.5311C20.1322 49.7343 20.0926 49.9788 20.0926 50.2645ZM25.1842 48.5692C25.4668 48.5692 25.6985 48.6057 25.8795 48.6788C26.0636 48.7486 26.2001 48.855 26.289 48.9978C26.3779 49.1407 26.4223 49.32 26.4223 49.5359C26.4223 49.7169 26.389 49.8677 26.3223 49.9883C26.2557 50.1089 26.1699 50.2057 26.0652 50.2788C25.9636 50.3486 25.8557 50.4042 25.7414 50.4454L26.6747 51.9692H26.1747L25.3509 50.5645H24.6747V51.9692H24.2461V48.5692H25.1842ZM25.1604 48.9407H24.6747V50.2026H25.1842C25.3684 50.2026 25.5192 50.1788 25.6366 50.1311C25.7541 50.0803 25.8398 50.0073 25.8938 49.9121C25.9509 49.8169 25.9795 49.6978 25.9795 49.555C25.9795 49.4057 25.9493 49.2867 25.889 49.1978C25.8319 49.1089 25.743 49.0438 25.6223 49.0026C25.5017 48.9613 25.3477 48.9407 25.1604 48.9407ZM30.056 51.9692L29.6465 50.9169H28.2989L27.8941 51.9692H27.4608L28.7893 48.555H29.175L30.4989 51.9692H30.056ZM29.1369 49.5073C29.1274 49.4819 29.1116 49.4359 29.0893 49.3692C29.0671 49.3026 29.0449 49.2343 29.0227 49.1645C29.0036 49.0915 28.9877 49.0359 28.975 48.9978C28.9592 49.0613 28.9417 49.1264 28.9227 49.193C28.9068 49.2565 28.8893 49.3153 28.8703 49.3692C28.8544 49.4232 28.8401 49.4692 28.8274 49.5073L28.4417 50.5359H29.5179L29.1369 49.5073ZM32.4196 51.9692H31.991V48.9454H30.9291V48.5692H33.4768V48.9454H32.4196V51.9692ZM35.6609 51.9692H34.4323V51.7216L34.8323 51.6311V48.9121L34.4323 48.8169V48.5692H35.6609V48.8169L35.2609 48.9121V51.6311L35.6609 51.7216V51.9692ZM39.4269 48.5692L38.2126 51.9692H37.784L36.5698 48.5692H37.0174L37.784 50.7502C37.819 50.8423 37.8491 50.9311 37.8745 51.0169C37.8999 51.1026 37.9221 51.1851 37.9412 51.2645C37.9634 51.3407 37.9825 51.4169 37.9983 51.493C38.0142 51.4169 38.0317 51.3391 38.0507 51.2597C38.0729 51.1803 38.0967 51.0978 38.1221 51.0121C38.1507 50.9264 38.1809 50.8359 38.2126 50.7407L38.9745 48.5692H39.4269ZM43.087 51.9692H42.5822L41.3774 50.3454L41.0298 50.6502V51.9692H40.6012V48.5692H41.0298V50.2454C41.125 50.1375 41.2219 50.0296 41.3203 49.9216C41.4187 49.8137 41.5171 49.7057 41.6155 49.5978L42.5346 48.5692H43.0346L41.687 50.0502L43.087 51.9692ZM46.3971 51.9692L45.9876 50.9169H44.64L44.2352 51.9692H43.8019L45.1305 48.555H45.5162L46.84 51.9692H46.3971ZM45.4781 49.5073C45.4686 49.4819 45.4527 49.4359 45.4305 49.3692C45.4083 49.3026 45.386 49.2343 45.3638 49.1645C45.3448 49.0915 45.3289 49.0359 45.3162 48.9978C45.3003 49.0613 45.2829 49.1264 45.2638 49.193C45.2479 49.2565 45.2305 49.3153 45.2114 49.3692C45.1956 49.4232 45.1813 49.4692 45.1686 49.5073L44.7829 50.5359H45.859L45.4781 49.5073ZM49.6813 52.7026H47.548V52.3978H49.6813V52.7026ZM53.4353 50.7692C53.4353 51.0042 53.3877 51.2169 53.2924 51.4073C53.1972 51.5946 53.0511 51.7438 52.8543 51.855C52.6607 51.9629 52.4131 52.0169 52.1115 52.0169C51.6892 52.0169 51.367 51.9026 51.1448 51.674C50.9258 51.4423 50.8162 51.1375 50.8162 50.7597V48.5692H51.2448V50.774C51.2448 51.0502 51.3178 51.2645 51.4638 51.4169C51.6131 51.5692 51.8369 51.6454 52.1353 51.6454C52.3416 51.6454 52.5083 51.6089 52.6353 51.5359C52.7654 51.4597 52.8607 51.3565 52.921 51.2264C52.9813 51.093 53.0115 50.9407 53.0115 50.7692V48.5692H53.4353V50.7692ZM57.5326 51.9692H57.0279L55.8231 50.3454L55.4755 50.6502V51.9692H55.0469V48.5692H55.4755V50.2454C55.5707 50.1375 55.6676 50.0296 55.766 49.9216C55.8644 49.8137 55.9628 49.7057 56.0612 49.5978L56.9803 48.5692H57.4803L56.1326 50.0502L57.5326 51.9692ZM59.6476 48.5692C59.9301 48.5692 60.1619 48.6057 60.3428 48.6788C60.527 48.7486 60.6635 48.855 60.7524 48.9978C60.8412 49.1407 60.8857 49.32 60.8857 49.5359C60.8857 49.7169 60.8524 49.8677 60.7857 49.9883C60.719 50.1089 60.6333 50.2057 60.5285 50.2788C60.427 50.3486 60.319 50.4042 60.2047 50.4454L61.1381 51.9692H60.6381L59.8143 50.5645H59.1381V51.9692H58.7095V48.5692H59.6476ZM59.6238 48.9407H59.1381V50.2026H59.6476C59.8317 50.2026 59.9825 50.1788 60.1 50.1311C60.2174 50.0803 60.3031 50.0073 60.3571 49.9121C60.4143 49.8169 60.4428 49.6978 60.4428 49.555C60.4428 49.4057 60.4127 49.2867 60.3524 49.1978C60.2952 49.1089 60.2063 49.0438 60.0857 49.0026C59.9651 48.9613 59.8111 48.9407 59.6238 48.9407Z" fill="#FCFCFC"/>
<path d="M25.6667 18.8694C31.9365 17.917 44.4762 18.917 44.4762 30.5361C44.4762 42.1551 31.9365 43.4725 25.6667 42.6789" stroke="#FCFCFC" stroke-width="1.16667"/>
<path d="M27.3331 18.6313V42.8209" stroke="#FCFCFC" stroke-width="1.16667"/>
<path d="M30.9048 18.6313V42.8209" stroke="#FCFCFC" stroke-width="1.16667"/>
</svg>
